<?xml version="1.0" encoding="UTF-8"?>

<svg xmlns="http://www.w3.org/2000/svg" version="1.1"
	width="210mm"
	height="297mm"
	viewBox="0 0 210 297">
	<!-- Working space 0 0 210 297 -->
	<defs>
		<radialGradient
			id="radialGradient3661"
			gradientUnits="userSpaceOnUse"
			cy="29.149"
			cx="282.65"
			gradientTransform="matrix(.14777 .23089 -.24680 .15795 -26.318 -62.617)"
			r="19.571">
				<stop stop-color="#71b2f8" offset="0"/>
				<stop stop-color="#002795" offset="1"/>
		</radialGradient>
		<radialGradient
			id="radialGradient3817"
			gradientUnits="userSpaceOnUse"
			cy="33.9"
			cx="270.58"
			gradientTransform="matrix(.26631 .065024 -.17931 .73438 -60.668 -36.938)"
			r="19.571">
				<stop stop-color="#ff6d0f" offset="0"/>
				<stop stop-color="#ff1000" offset="1"/>
		</radialGradient>
	</defs>
	<!-- Set display:none to hide FreeCAD Logo -->
	<g
		style="display:inline"
		id="freecad-logo"
		transform="translate(184, 272) scale(1)"
		fill-rule="evenodd"
		stroke-width=".45621">
		<path d="m0.22811 0.22835v13.256h2.9558v-5.1876h2.09v-2.0452h-2.09v-2.2075h5.1486v-3.8087l-8.1044-0.0075z"
			stroke="#370700"
			fill="url(#radialGradient3817)"/>
		<path d="m13.386 4.1792-1.7193 0.98645-0.75925-0.26348-0.72439-1.8513-1.1395 0.05988-0.51976 1.9144-0.72743 0.34835-1.8143-0.79367-0.76632 0.85156 0.98645 1.7193-0.26957 0.75702-1.8513 0.72439 0.065967 1.1417 1.9144 0.51976 0.34835 0.72743-0.79976 1.8121 0.85156 0.76632 1.7193-0.98645 0.76311 0.27179 0.7183 1.8491 1.1478-0.06375 0.51367-1.9166 0.72743-0.34835 1.8182 0.80198 0.76632-0.85156-0.98645-1.7193 0.2657-0.76533 1.8491-0.7183-0.05766-1.1456-1.9166-0.51367-0.34835-0.72743 0.7959-1.8204-0.85156-0.76632zm-2.5751 2.8195 0.35295 0.20478 0.30579 0.27725 0.24481 0.33087 0.17611 0.36787 0.10354 0.39656 0.01715 0.4064-0.0587 0.4063-0.13396 0.38571-0.2131 0.35681-0.26894 0.30192-0.33087 0.24481-0.36787 0.17611-0.39656 0.10354-0.40863 0.02325-0.4063-0.0587-0.38571-0.13396-0.35681-0.2131-0.2997-0.27503-0.24703-0.32478-0.17611-0.36787-0.10132-0.40264-0.02324-0.40863 0.05869-0.4063 0.13396-0.38571 0.21087-0.35072 0.27116-0.30801 0.33087-0.24481 0.36787-0.17611 0.40264-0.10132 0.40641-0.01715 0.4063 0.05869 0.38571 0.13396z" 
		stroke="#000137"
		fill="url(#radialGradient3661)"/>
	</g>
<g id="Ortho_0_0"
   transform="rotate(-90,100,250.5) translate(100,250.5) scale(1,1)"
  >
<g   stroke="rgb(0, 0, 0)"
   stroke-width="0.35"
   stroke-linecap="butt"
   stroke-linejoin="miter"
   fill="none"
   transform="scale(1,-1)"
  >
<path id= "1" d=" M 0 -15 L 1 -15 " />
<path d="M0,-13.5 L0,-13.6679  L0,-13.8338  L0,-13.9954  L0,-14.1508  L0,-14.298  L0,-14.4352  L0,-14.5607  L0,-14.6727  L0,-14.7701  L0,-14.8515  L0,-14.9158  L0,-14.9624  L0,-14.9906  L0,-15 " /><path d="M1,-13.5 L1,-13.6679  L1,-13.8338  L1,-13.9954  L1,-14.1508  L1,-14.298  L1,-14.4352  L1,-14.5607  L1,-14.6727  L1,-14.7701  L1,-14.8515  L1,-14.9158  L1,-14.9624  L1,-14.9906  L1,-15 " /><path id= "4" d=" M 0 -13.5 L 0 3.5 " />
<path id= "5" d=" M 1 -13.5 L 1 3.5 " />
<path id= "6" d=" M 0 5 L 1 5 " />
<path d="M0,5 L0,4.99057  L0,4.96239  L0,4.91582  L0,4.85145  L0,4.77009  L0,4.67275  L0,4.56066  L0,4.43523  L0,4.29805  L0,4.15083  L0,3.99542  L0,3.83378  L0,3.66795  L0,3.5 " /><path d="M1,5 L1,4.99057  L1,4.96239  L1,4.91582  L1,4.85145  L1,4.77009  L1,4.67275  L1,4.56066  L1,4.43523  L1,4.29805  L1,4.15083  L1,3.99542  L1,3.83378  L1,3.66795  L1,3.5 " /></g>
</g>



<g id="Ortho_0_1"
   transform="rotate(90,100,128) translate(100,128) scale(1,1)"
  >
<g   stroke="rgb(0, 0, 0)"
   stroke-width="0.35"
   stroke-linecap="butt"
   stroke-linejoin="miter"
   fill="none"
   transform="scale(1,-1)"
  >
<path id= "1" d=" M -5 15 L 3.5 15 " />
<path d="M5 13.5 A1.5 1.5 0 0 1 3.5 15" /><path id= "3" d=" M 5 13.5 L 5 -3.5 " />
<path d="M3.5 -5 A1.5 1.5 0 0 1 5 -3.5" /><path id= "5" d=" M 3.5 -5 L -13.5 -5 " />
<path d="M-15 -3.5 A1.5 1.5 0 0 1 -13.5 -5" /><path id= "7" d=" M -15 -3.5 L -15 5 " />
<path d="M-14.5607 6.06066 A1.5 1.5 0 0 1 -15 5" /><path id= "9" d=" M -14.5607 6.06066 L -6.06066 14.5607 " />
<path d="M-5 15 A1.5 1.5 0 0 1 -6.06066 14.5607" /><circle cx ="-10" cy ="0" r ="2.1" /><circle cx ="0" cy ="10" r ="2.1" /><circle cx ="0" cy ="0" r ="2.1" /></g>
</g>



</svg>

