<?xml version="1.0" encoding="UTF-8"?>

<svg xmlns="http://www.w3.org/2000/svg" version="1.1"
	width="210mm"
	height="297mm"
	viewBox="0 0 210 297">
	<!-- Working space 0 0 210 297 -->
	<defs>
		<radialGradient
			id="radialGradient3661"
			gradientUnits="userSpaceOnUse"
			cy="29.149"
			cx="282.65"
			gradientTransform="matrix(.14777 .23089 -.24680 .15795 -26.318 -62.617)"
			r="19.571">
				<stop stop-color="#71b2f8" offset="0"/>
				<stop stop-color="#002795" offset="1"/>
		</radialGradient>
		<radialGradient
			id="radialGradient3817"
			gradientUnits="userSpaceOnUse"
			cy="33.9"
			cx="270.58"
			gradientTransform="matrix(.26631 .065024 -.17931 .73438 -60.668 -36.938)"
			r="19.571">
				<stop stop-color="#ff6d0f" offset="0"/>
				<stop stop-color="#ff1000" offset="1"/>
		</radialGradient>
	</defs>
	<!-- Set display:none to hide FreeCAD Logo -->
	<g
		style="display:inline"
		id="freecad-logo"
		transform="translate(184, 272) scale(1)"
		fill-rule="evenodd"
		stroke-width=".45621">
		<path d="m0.22811 0.22835v13.256h2.9558v-5.1876h2.09v-2.0452h-2.09v-2.2075h5.1486v-3.8087l-8.1044-0.0075z"
			stroke="#370700"
			fill="url(#radialGradient3817)"/>
		<path d="m13.386 4.1792-1.7193 0.98645-0.75925-0.26348-0.72439-1.8513-1.1395 0.05988-0.51976 1.9144-0.72743 0.34835-1.8143-0.79367-0.76632 0.85156 0.98645 1.7193-0.26957 0.75702-1.8513 0.72439 0.065967 1.1417 1.9144 0.51976 0.34835 0.72743-0.79976 1.8121 0.85156 0.76632 1.7193-0.98645 0.76311 0.27179 0.7183 1.8491 1.1478-0.06375 0.51367-1.9166 0.72743-0.34835 1.8182 0.80198 0.76632-0.85156-0.98645-1.7193 0.2657-0.76533 1.8491-0.7183-0.05766-1.1456-1.9166-0.51367-0.34835-0.72743 0.7959-1.8204-0.85156-0.76632zm-2.5751 2.8195 0.35295 0.20478 0.30579 0.27725 0.24481 0.33087 0.17611 0.36787 0.10354 0.39656 0.01715 0.4064-0.0587 0.4063-0.13396 0.38571-0.2131 0.35681-0.26894 0.30192-0.33087 0.24481-0.36787 0.17611-0.39656 0.10354-0.40863 0.02325-0.4063-0.0587-0.38571-0.13396-0.35681-0.2131-0.2997-0.27503-0.24703-0.32478-0.17611-0.36787-0.10132-0.40264-0.02324-0.40863 0.05869-0.4063 0.13396-0.38571 0.21087-0.35072 0.27116-0.30801 0.33087-0.24481 0.36787-0.17611 0.40264-0.10132 0.40641-0.01715 0.4063 0.05869 0.38571 0.13396z" 
		stroke="#000137"
		fill="url(#radialGradient3661)"/>
	</g>
<g id="Ortho_0_0"
   transform="rotate(-90,188.07,198.5) translate(188.07,198.5) scale(1,1)"
  >
<g   stroke="rgb(0, 0, 0)"
   stroke-width="0.35"
   stroke-linecap="butt"
   stroke-linejoin="miter"
   fill="none"
   transform="scale(1,-1)"
  >
<path id= "1" d=" M 4.9 -1.11022e-16 L 95.1 -1.11022e-16 " />
<path id= "2" d=" M 4.9 -4.40759e-14 L 95.1 -4.40759e-14 " />
<path id= "3" d=" M 4.9 0 L 95.1 0 " />
<path id= "4" d=" M 4.9 0 L 95.1 0 " />
<path d="M4.9,-1 L4.35137,-1  L3.80965,-1  L3.28163,-1  L2.77397,-1  L2.29304,-1  L1.8449,-1  L1.43518,-1  L1.06903,-1  L0.751051,-1  L0.485253,-1  L0.274972,-1  L0.122853,-1  L0.0308102,-1  L-8.88178e-16,-1 " /><path id= "6" d=" M 4.9 -1 L 95.1 -1 " />
<path d="M95.1,-1 L95.6486,-1  L96.1904,-1  L96.7184,-1  L97.226,-1  L97.707,-1  L98.1551,-1  L98.5648,-1  L98.931,-1  L99.2489,-1  L99.5147,-1  L99.725,-1  L99.8771,-1  L99.9692,-1  L100,-1 " /><path id= "8" d=" M -8.88178e-16 -2.921e-14 L -8.88178e-16 -1 " />
<path d="M4.9,-4.6374e-14 L4.35137,-4.62611e-14  L3.80965,-4.59239e-14  L3.28163,-4.53666e-14  L2.77397,-4.45962e-14  L2.29304,-4.36224e-14  L1.8449,-4.24574e-14  L1.43518,-4.11159e-14  L1.06903,-3.96148e-14  L0.751051,-3.79729e-14  L0.485253,-3.62109e-14  L0.274972,-3.4351e-14  L0.122853,-3.24165e-14  L0.0308102,-3.04317e-14  L-8.88178e-16,-2.84217e-14 " /><path id= "10" d=" M 4.9 -8.77076e-15 L 95.1 -8.77076e-15 " />
<path id= "11" d=" M 4.9 -5.14033e-14 L 95.1 -5.14033e-14 " />
<path d="M95.1,-4.6374e-14 L95.6486,-4.62611e-14  L96.1904,-4.59239e-14  L96.7184,-4.53666e-14  L97.226,-4.45962e-14  L97.707,-4.36224e-14  L98.1551,-4.24574e-14  L98.5648,-4.11159e-14  L98.931,-3.96148e-14  L99.2489,-3.79729e-14  L99.5147,-3.62109e-14  L99.725,-3.4351e-14  L99.8771,-3.24165e-14  L99.9692,-3.04317e-14  L100,-2.84217e-14 " /><path d="M67.1,-2.84217e-14 L67.0473,-3.00819e-14  L66.892,-3.16588e-14  L66.6418,-3.30734e-14  L66.3093,-3.42547e-14  L65.9112,-3.51436e-14  L65.4673,-3.56954e-14  L65,-3.58824e-14  L64.5327,-3.56954e-14  L64.0888,-3.51436e-14  L63.6907,-3.42547e-14  L63.3582,-3.30734e-14  L63.108,-3.16588e-14  L62.9527,-3.00819e-14  L62.9,-2.84217e-14 " /><path d="M57.1,-2.84217e-14 L57.0473,-3.00819e-14  L56.892,-3.16588e-14  L56.6418,-3.30734e-14  L56.3093,-3.42547e-14  L55.9112,-3.51436e-14  L55.4673,-3.56954e-14  L55,-3.58824e-14  L54.5327,-3.56954e-14  L54.0888,-3.51436e-14  L53.6907,-3.42547e-14  L53.3582,-3.30734e-14  L53.108,-3.16588e-14  L52.9527,-3.00819e-14  L52.9,-2.84217e-14 " /><path d="M37.1,-2.84217e-14 L37.0473,-3.00819e-14  L36.892,-3.16588e-14  L36.6418,-3.30734e-14  L36.3093,-3.42547e-14  L35.9112,-3.51436e-14  L35.4673,-3.56954e-14  L35,-3.58824e-14  L34.5327,-3.56954e-14  L34.0888,-3.51436e-14  L33.6907,-3.42547e-14  L33.3582,-3.30734e-14  L33.108,-3.16588e-14  L32.9527,-3.00819e-14  L32.9,-2.84217e-14 " /><path d="M47.1,-2.84217e-14 L47.0473,-3.00819e-14  L46.892,-3.16588e-14  L46.6418,-3.30734e-14  L46.3093,-3.42547e-14  L45.9112,-3.51436e-14  L45.4673,-3.56954e-14  L45,-3.58824e-14  L44.5327,-3.56954e-14  L44.0888,-3.51436e-14  L43.6907,-3.42547e-14  L43.3582,-3.30734e-14  L43.108,-3.16588e-14  L42.9527,-3.00819e-14  L42.9,-2.84217e-14 " /><path d="M7.1,-2.84217e-14 L7.08598,-2.92823e-14  L7.04412,-3.01313e-14  L6.97497,-3.09576e-14  L6.87946,-3.175e-14  L6.75886,-3.24979e-14  L6.61477,-3.31915e-14  L6.44914,-3.38214e-14  L6.26416,-3.43792e-14  L6.0623,-3.48574e-14  L5.84626,-3.52498e-14  L5.61893,-3.5551e-14  L5.38333,-3.57571e-14  L5.14262,-3.58652e-14  L4.9,-3.58739e-14 " /><path d="M17.1,-2.84217e-14 L17.0473,-3.00819e-14  L16.892,-3.16588e-14  L16.6418,-3.30734e-14  L16.3093,-3.42547e-14  L15.9112,-3.51436e-14  L15.4673,-3.56954e-14  L15,-3.58824e-14  L14.5327,-3.56954e-14  L14.0888,-3.51436e-14  L13.6907,-3.42547e-14  L13.3582,-3.30734e-14  L13.108,-3.16588e-14  L12.9527,-3.00819e-14  L12.9,-2.84217e-14 " /><path d="M27.1,-2.84217e-14 L27.0473,-3.00819e-14  L26.892,-3.16588e-14  L26.6418,-3.30734e-14  L26.3093,-3.42547e-14  L25.9112,-3.51436e-14  L25.4673,-3.56954e-14  L25,-3.58824e-14  L24.5327,-3.56954e-14  L24.0888,-3.51436e-14  L23.6907,-3.42547e-14  L23.3582,-3.30734e-14  L23.108,-3.16588e-14  L22.9527,-3.00819e-14  L22.9,-2.84217e-14 " /><path d="M87.1,-2.84217e-14 L87.0473,-3.00819e-14  L86.892,-3.16588e-14  L86.6418,-3.30734e-14  L86.3093,-3.42547e-14  L85.9112,-3.51436e-14  L85.4673,-3.56954e-14  L85,-3.58824e-14  L84.5327,-3.56954e-14  L84.0888,-3.51436e-14  L83.6907,-3.42547e-14  L83.3582,-3.30734e-14  L83.108,-3.16588e-14  L82.9527,-3.00819e-14  L82.9,-2.84217e-14 " /><path d="M77.1,-2.84217e-14 L77.0473,-3.00819e-14  L76.892,-3.16588e-14  L76.6418,-3.30734e-14  L76.3093,-3.42547e-14  L75.9112,-3.51436e-14  L75.4673,-3.56954e-14  L75,-3.58824e-14  L74.5327,-3.56954e-14  L74.0888,-3.51436e-14  L73.6907,-3.42547e-14  L73.3582,-3.30734e-14  L73.108,-3.16588e-14  L72.9527,-3.00819e-14  L72.9,-2.84217e-14 " /><path d="M95.1,-3.58739e-14 L94.8574,-3.58652e-14  L94.6167,-3.57571e-14  L94.3811,-3.5551e-14  L94.1537,-3.52498e-14  L93.9377,-3.48574e-14  L93.7358,-3.43792e-14  L93.5509,-3.38214e-14  L93.3852,-3.31915e-14  L93.2411,-3.24979e-14  L93.1205,-3.175e-14  L93.025,-3.09576e-14  L92.9559,-3.01313e-14  L92.914,-2.92823e-14  L92.9,-2.84217e-14 " /><path id= "23" d=" M 4.9 -4.26326e-14 L 4.9 -1 " />
<path id= "24" d=" M 95.1 -4.26326e-14 L 95.1 -1 " />
<path id= "25" d=" M 100 -2.921e-14 L 100 -1 " />
</g>
</g>



<g id="Ortho_-1_0"
   transform="rotate(90,70.2851,198.5) translate(70.2851,198.5) scale(1,1)"
  >
<g   stroke="rgb(0, 0, 0)"
   stroke-width="0.35"
   stroke-linecap="butt"
   stroke-linejoin="miter"
   fill="none"
   transform="scale(1,-1)"
  >
<circle cx ="-65" cy ="-8.17769" r ="2.1" /><circle cx ="-55" cy ="-8.17769" r ="2.1" /><circle cx ="-35" cy ="-8.17769" r ="2.1" /><circle cx ="-45" cy ="-8.17769" r ="2.1" /><circle cx ="-5" cy ="-8.17769" r ="2.1" /><circle cx ="-15" cy ="-8.17769" r ="2.1" /><circle cx ="-25" cy ="-8.17769" r ="2.1" /><path id= "8" d=" M 0 -1.17769 L 0 -8.27769 " />
<path d="M8.88178e-16 -8.27769 A4.9 4.9 0 0 0 -4.9 -13.1777" /><path id= "10" d=" M 0 -1.17769 L -100 -1.17769 " />
<path id= "11" d=" M -4.9 -13.1777 L -95.1 -13.1777 " />
<path id= "12" d=" M -100 -1.17769 L -100 -8.27769 " />
<path d="M-100 -8.27769 A4.9 4.9 0 0 1 -95.1 -13.1777" /><circle cx ="-65" cy ="-8.17769" r ="2.1" /><circle cx ="-55" cy ="-8.17769" r ="2.1" /><circle cx ="-35" cy ="-8.17769" r ="2.1" /><circle cx ="-45" cy ="-8.17769" r ="2.1" /><circle cx ="-5" cy ="-8.17769" r ="2.1" /><circle cx ="-15" cy ="-8.17769" r ="2.1" /><circle cx ="-25" cy ="-8.17769" r ="2.1" /><circle cx ="-85" cy ="-8.17769" r ="2.1" /><circle cx ="-75" cy ="-8.17769" r ="2.1" /><circle cx ="-95" cy ="-8.17769" r ="2.1" /><path id= "24" d=" M 0 0 L -100 0 " />
<path id= "25" d=" M 0 0 L 0 -1.17769 " />
<path id= "26" d=" M -100 0 L -100 -1.17769 " />
<path id= "27" d=" M 0 0 L 0 47 " />
<path id= "28" d=" M -100 0 L -100 47 " />
<path id= "29" d=" M 0 47 L -100 47 " />
<circle cx ="-15" cy ="33.5" r ="2.1" /><circle cx ="-25" cy ="33.5" r ="2.1" /><circle cx ="-35" cy ="33.5" r ="2.1" /><circle cx ="-15" cy ="43.5" r ="2.1" /><circle cx ="-45" cy ="43.5" r ="2.1" /><circle cx ="-35" cy ="43.5" r ="2.1" /><circle cx ="-25" cy ="43.5" r ="2.1" /><circle cx ="-45" cy ="33.5" r ="2.1" /><circle cx ="-95" cy ="43.5" r ="2.1" /><circle cx ="-85" cy ="43.5" r ="2.1" /><circle cx ="-85" cy ="33.5" r ="2.1" /><circle cx ="-95" cy ="33.5" r ="2.1" /><circle cx ="-75" cy ="33.5" r ="2.1" /><circle cx ="-75" cy ="43.5" r ="2.1" /><circle cx ="-65" cy ="43.5" r ="2.1" /><circle cx ="-65" cy ="33.5" r ="2.1" /><circle cx ="-55" cy ="43.5" r ="2.1" /><circle cx ="-55" cy ="33.5" r ="2.1" /><circle cx ="-15" cy ="23.5" r ="2.1" /><circle cx ="-25" cy ="23.5" r ="2.1" /><circle cx ="-45" cy ="23.5" r ="2.1" /><circle cx ="-35" cy ="23.5" r ="2.1" /><circle cx ="-95" cy ="23.5" r ="2.1" /><circle cx ="-85" cy ="23.5" r ="2.1" /><circle cx ="-65" cy ="23.5" r ="2.1" /><circle cx ="-75" cy ="23.5" r ="2.1" /><circle cx ="-55" cy ="23.5" r ="2.1" /><circle cx ="-95" cy ="3.5" r ="2.1" /><circle cx ="-85" cy ="3.5" r ="2.1" /><circle cx ="-75" cy ="3.5" r ="2.1" /><circle cx ="-75" cy ="13.5" r ="2.1" /><circle cx ="-85" cy ="13.5" r ="2.1" /><circle cx ="-95" cy ="13.5" r ="2.1" /><circle cx ="-65" cy ="13.5" r ="2.1" /><circle cx ="-65" cy ="3.5" r ="2.1" /><circle cx ="-25" cy ="13.5" r ="2.1" /><circle cx ="-35" cy ="13.5" r ="2.1" /><circle cx ="-45" cy ="13.5" r ="2.1" /><circle cx ="-45" cy ="3.5" r ="2.1" /><circle cx ="-35" cy ="3.5" r ="2.1" /><circle cx ="-25" cy ="3.5" r ="2.1" /><circle cx ="-55" cy ="3.5" r ="2.1" /><circle cx ="-55" cy ="13.5" r ="2.1" /><circle cx ="-15" cy ="13.5" r ="2.1" /><circle cx ="-15" cy ="3.5" r ="2.1" /><circle cx ="-5" cy ="23.5" r ="2.1" /><circle cx ="-5" cy ="13.5" r ="2.1" /><circle cx ="-5" cy ="43.5" r ="2.1" /><circle cx ="-5" cy ="33.5" r ="2.1" /><circle cx ="-5" cy ="3.5" r ="2.1" /><circle cx ="-65" cy ="55.1777" r ="2.1" /><circle cx ="-55" cy ="55.1777" r ="2.1" /><circle cx ="-35" cy ="55.1777" r ="2.1" /><circle cx ="-45" cy ="55.1777" r ="2.1" /><circle cx ="-5" cy ="55.1777" r ="2.1" /><path id= "85" d=" M 0 48.1777 L 0 55.2777 " />
<path d="M-4.9 60.1777 A4.9 4.9 0 0 0 8.88178e-16 55.2777" /><path id= "87" d=" M 0 48.1777 L -100 48.1777 " />
<path id= "88" d=" M -4.9 60.1777 L -95.1 60.1777 " />
<path id= "89" d=" M -100 48.1777 L -100 55.2777 " />
<path d="M-95.1 60.1777 A4.9 4.9 0 0 1 -100 55.2777" /><circle cx ="-65" cy ="55.1777" r ="2.1" /><circle cx ="-55" cy ="55.1777" r ="2.1" /><circle cx ="-35" cy ="55.1777" r ="2.1" /><circle cx ="-45" cy ="55.1777" r ="2.1" /><circle cx ="-5" cy ="55.1777" r ="2.1" /><circle cx ="-15" cy ="55.1777" r ="2.1" /><circle cx ="-25" cy ="55.1777" r ="2.1" /><circle cx ="-85" cy ="55.1777" r ="2.1" /><circle cx ="-75" cy ="55.1777" r ="2.1" /><circle cx ="-95" cy ="55.1777" r ="2.1" /><path id= "101" d=" M 0 47 L 0 48.1777 " />
<path id= "102" d=" M -100 47 L -100 48.1777 " />
<path id= "103" d=" M -100 47 L -100 48.1777 " />
<circle cx ="-55" cy ="3.5" r ="2.1" /><circle cx ="-35" cy ="3.5" r ="2.1" /><circle cx ="-45" cy ="3.5" r ="2.1" /></g>
</g>



</svg>

