<?xml version="1.0" encoding="UTF-8"?>

<svg xmlns="http://www.w3.org/2000/svg" version="1.1"
	width="210mm"
	height="297mm"
	viewBox="0 0 210 297">
	<!-- Working space 0 0 210 297 -->
	<defs>
		<radialGradient
			id="radialGradient3661"
			gradientUnits="userSpaceOnUse"
			cy="29.149"
			cx="282.65"
			gradientTransform="matrix(.14777 .23089 -.24680 .15795 -26.318 -62.617)"
			r="19.571">
				<stop stop-color="#71b2f8" offset="0"/>
				<stop stop-color="#002795" offset="1"/>
		</radialGradient>
		<radialGradient
			id="radialGradient3817"
			gradientUnits="userSpaceOnUse"
			cy="33.9"
			cx="270.58"
			gradientTransform="matrix(.26631 .065024 -.17931 .73438 -60.668 -36.938)"
			r="19.571">
				<stop stop-color="#ff6d0f" offset="0"/>
				<stop stop-color="#ff1000" offset="1"/>
		</radialGradient>
	</defs>
	<!-- Set display:none to hide FreeCAD Logo -->
	<g
		style="display:inline"
		id="freecad-logo"
		transform="translate(184, 272) scale(1)"
		fill-rule="evenodd"
		stroke-width=".45621">
		<path d="m0.22811 0.22835v13.256h2.9558v-5.1876h2.09v-2.0452h-2.09v-2.2075h5.1486v-3.8087l-8.1044-0.0075z"
			stroke="#370700"
			fill="url(#radialGradient3817)"/>
		<path d="m13.386 4.1792-1.7193 0.98645-0.75925-0.26348-0.72439-1.8513-1.1395 0.05988-0.51976 1.9144-0.72743 0.34835-1.8143-0.79367-0.76632 0.85156 0.98645 1.7193-0.26957 0.75702-1.8513 0.72439 0.065967 1.1417 1.9144 0.51976 0.34835 0.72743-0.79976 1.8121 0.85156 0.76632 1.7193-0.98645 0.76311 0.27179 0.7183 1.8491 1.1478-0.06375 0.51367-1.9166 0.72743-0.34835 1.8182 0.80198 0.76632-0.85156-0.98645-1.7193 0.2657-0.76533 1.8491-0.7183-0.05766-1.1456-1.9166-0.51367-0.34835-0.72743 0.7959-1.8204-0.85156-0.76632zm-2.5751 2.8195 0.35295 0.20478 0.30579 0.27725 0.24481 0.33087 0.17611 0.36787 0.10354 0.39656 0.01715 0.4064-0.0587 0.4063-0.13396 0.38571-0.2131 0.35681-0.26894 0.30192-0.33087 0.24481-0.36787 0.17611-0.39656 0.10354-0.40863 0.02325-0.4063-0.0587-0.38571-0.13396-0.35681-0.2131-0.2997-0.27503-0.24703-0.32478-0.17611-0.36787-0.10132-0.40264-0.02324-0.40863 0.05869-0.4063 0.13396-0.38571 0.21087-0.35072 0.27116-0.30801 0.33087-0.24481 0.36787-0.17611 0.40264-0.10132 0.40641-0.01715 0.4063 0.05869 0.38571 0.13396z" 
		stroke="#000137"
		fill="url(#radialGradient3661)"/>
	</g>
<g id="Ortho_0_0"
   transform="rotate(-90,19.7249,153.5) translate(19.7249,153.5) scale(1,1)"
  >
<g   stroke="rgb(0, 0, 0)"
   stroke-width="0.35"
   stroke-linecap="butt"
   stroke-linejoin="miter"
   fill="none"
   transform="scale(1,-1)"
  >
<path d="M4.9,-1 L4.35137,-1  L3.80965,-1  L3.28163,-1  L2.77397,-1  L2.29304,-1  L1.8449,-1  L1.43518,-1  L1.06903,-1  L0.751051,-1  L0.485253,-1  L0.274972,-1  L0.122853,-1  L0.0308102,-1  L-8.88178e-16,-1 " /><path id= "2" d=" M 4.9 -1 L 5.1 -1 " />
<path id= "3" d=" M 4.9 -1 L 5.1 -1 " />
<path d="M5.1,-1 L5.64863,-1  L6.19035,-1  L6.71837,-1  L7.22603,-1  L7.70696,-1  L8.1551,-1  L8.56482,-1  L8.93097,-1  L9.24895,-1  L9.51475,-1  L9.72503,-1  L9.87715,-1  L9.96919,-1  L10,-1 " /><path id= "5" d=" M -8.88178e-16 -7.88258e-16 L -8.88178e-16 -1 " />
<path d="M4.9,0 L4.35137,0  L3.80965,0  L3.28163,0  L2.77397,0  L2.29304,0  L1.8449,0  L1.43518,0  L1.06903,0  L0.751051,0  L0.485253,0  L0.274972,0  L0.122853,0  L0.0308102,0  L-8.88178e-16,0 " /><path id= "7" d=" M 4.9 0 L 5.1 0 " />
<path d="M5.1,0 L5.64863,0  L6.19035,0  L6.71837,0  L7.22603,0  L7.70696,0  L8.1551,0  L8.56482,0  L8.93097,0  L9.24895,0  L9.51475,0  L9.72503,0  L9.87715,0  L9.96919,0  L10,0 " /><path d="M5.1,2.32882e-16 L5.08572,2.32953e-16  L5.07144,2.33012e-16  L5.05716,2.3306e-16  L5.04287,2.33098e-16  L5.02858,2.33125e-16  L5.01429,2.33141e-16  L5,2.33147e-16  L4.98571,2.33141e-16  L4.97142,2.33125e-16  L4.95713,2.33098e-16  L4.94284,2.3306e-16  L4.92856,2.33012e-16  L4.91428,2.32953e-16  L4.9,2.32882e-16 " /><path id= "10" d=" M 4.9 0 L 4.9 -1 " />
<path id= "11" d=" M 5.1 0 L 5.1 -1 " />
<path id= "12" d=" M 10 -7.88258e-16 L 10 -1 " />
<path id= "13" d=" M 4.9 -1 L 5.1 -1 " />
<path id= "14" d=" M 4.9 -1 L 5.1 -1 " />
<path id= "15" d=" M 4.9 -1 L 5.1 -1 " />
</g>
</g>



<g id="Ortho_1_0"
   transform="rotate(-90,139.112,153.5) translate(139.112,153.5) scale(1,1)"
  >
<g   stroke="rgb(0, 0, 0)"
   stroke-width="0.35"
   stroke-linecap="butt"
   stroke-linejoin="miter"
   fill="none"
   transform="scale(1,-1)"
  >
<path id= "1" d=" M 0 49.0813 L 0 56.1813 " />
<path d="M4.9 61.0813 A4.9 4.9 0 0 1 -8.88178e-16 56.1813" /><path id= "3" d=" M 0 49.0813 L 10 49.0813 " />
<path id= "4" d=" M 4.9 61.0813 L 5.1 61.0813 " />
<path id= "5" d=" M 10 49.0813 L 10 56.1813 " />
<path d="M5.1 61.0813 A4.9 4.9 0 0 0 10 56.1813" /><circle cx ="5" cy ="56.0813" r ="2.1" /><path id= "8" d=" M 0 47 L 10 47 " />
<path id= "9" d=" M 0 47 L 0 49.0813 " />
<path id= "10" d=" M 10 47 L 10 49.0813 " />
<path id= "11" d=" M 10 47 L 10 49.0813 " />
<path id= "12" d=" M 0 47 L 0 0 " />
<path id= "13" d=" M 10 47 L 10 0 " />
<path id= "14" d=" M 0 0 L 10 0 " />
<circle cx ="5" cy ="43.5" r ="2.1" /><circle cx ="5" cy ="33.5" r ="2.1" /><circle cx ="5" cy ="23.5" r ="2.1" /><circle cx ="5" cy ="3.5" r ="2.1" /><circle cx ="5" cy ="13.5" r ="2.1" /><path id= "20" d=" M 0 -2.08131 L 0 -9.18131 " />
<path d="M4.9 -14.0813 A4.9 4.9 0 0 0 -8.88178e-16 -9.18131" /><path id= "22" d=" M 0 -2.08131 L 10 -2.08131 " />
<path id= "23" d=" M 4.9 -14.0813 L 5.1 -14.0813 " />
<path id= "24" d=" M 10 -2.08131 L 10 -9.18131 " />
<path d="M5.1 -14.0813 A4.9 4.9 0 0 1 10 -9.18131" /><circle cx ="5" cy ="-9.08131" r ="2.1" /><path id= "27" d=" M 0 0 L 0 -2.08131 " />
<path id= "28" d=" M 10 0 L 10 -2.08131 " />
<circle cx ="5" cy ="33.5" r ="2.1" /><circle cx ="5" cy ="43.5" r ="2.1" /></g>
</g>



</svg>

