<?xml version="1.0" encoding="UTF-8"?>

<svg xmlns="http://www.w3.org/2000/svg" version="1.1"
	width="297mm"
	height="210mm"
	viewBox="0 0 297 210">
	<!-- Working space 0 0 297 210 -->
	<defs>
		<radialGradient
			id="radialGradient3661"
			gradientUnits="userSpaceOnUse"
			cy="29.149"
			cx="282.65"
			gradientTransform="matrix(.14777 .23089 -.24680 .15795 -26.318 -62.617)"
			r="19.571">
				<stop stop-color="#71b2f8" offset="0"/>
				<stop stop-color="#002795" offset="1"/>
		</radialGradient>
		<radialGradient
			id="radialGradient3817"
			gradientUnits="userSpaceOnUse"
			cy="33.9"
			cx="270.58"
			gradientTransform="matrix(.26631 .065024 -.17931 .73438 -60.668 -36.938)"
			r="19.571">
				<stop stop-color="#ff6d0f" offset="0"/>
				<stop stop-color="#ff1000" offset="1"/>
		</radialGradient>
	</defs>
	<!-- Set display:none to hide FreeCAD Logo -->
	<g
		style="display:inline"
		id="freecad-logo"
		transform="translate(271, 185) scale(1)"
		fill-rule="evenodd"
		stroke-width=".45621">
		<path d="m0.22811 0.22835v13.256h2.9558v-5.1876h2.09v-2.0452h-2.09v-2.2075h5.1486v-3.8087l-8.1044-0.0075z"
			stroke="#370700"
			fill="url(#radialGradient3817)"/>
		<path d="m13.386 4.1792-1.7193 0.98645-0.75925-0.26348-0.72439-1.8513-1.1395 0.05988-0.51976 1.9144-0.72743 0.34835-1.8143-0.79367-0.76632 0.85156 0.98645 1.7193-0.26957 0.75702-1.8513 0.72439 0.065967 1.1417 1.9144 0.51976 0.34835 0.72743-0.79976 1.8121 0.85156 0.76632 1.7193-0.98645 0.76311 0.27179 0.7183 1.8491 1.1478-0.06375 0.51367-1.9166 0.72743-0.34835 1.8182 0.80198 0.76632-0.85156-0.98645-1.7193 0.2657-0.76533 1.8491-0.7183-0.05766-1.1456-1.9166-0.51367-0.34835-0.72743 0.7959-1.8204-0.85156-0.76632zm-2.5751 2.8195 0.35295 0.20478 0.30579 0.27725 0.24481 0.33087 0.17611 0.36787 0.10354 0.39656 0.01715 0.4064-0.0587 0.4063-0.13396 0.38571-0.2131 0.35681-0.26894 0.30192-0.33087 0.24481-0.36787 0.17611-0.39656 0.10354-0.40863 0.02325-0.4063-0.0587-0.38571-0.13396-0.35681-0.2131-0.2997-0.27503-0.24703-0.32478-0.17611-0.36787-0.10132-0.40264-0.02324-0.40863 0.05869-0.4063 0.13396-0.38571 0.21087-0.35072 0.27116-0.30801 0.33087-0.24481 0.36787-0.17611 0.40264-0.10132 0.40641-0.01715 0.4063 0.05869 0.38571 0.13396z" 
		stroke="#000137"
		fill="url(#radialGradient3661)"/>
	</g>
<g id="Ortho_0_0"
   transform="rotate(-90,143.5,534.054) translate(143.5,534.054) scale(1,1)"
  >
<g   stroke="rgb(0, 0, 0)"
   stroke-width="0.35"
   stroke-linecap="butt"
   stroke-linejoin="miter"
   fill="none"
   transform="scale(1,-1)"
  >
<path d="M1,-5.1 L1,-5.64863  L1,-6.19035  L1,-6.71837  L1,-7.22603  L1,-7.70696  L1,-8.1551  L1,-8.56482  L1,-8.93097  L1,-9.24895  L1,-9.51475  L1,-9.72503  L1,-9.87715  L1,-9.96919  L1,-10 " /><path id= "2" d=" M 1 -5.1 L 1 -4.9 " />
<path d="M1,-4.9 L1,-4.35137  L1,-3.80965  L1,-3.28163  L1,-2.77397  L1,-2.29304  L1,-1.8449  L1,-1.43518  L1,-1.06903  L1,-0.751051  L1,-0.485253  L1,-0.274972  L1,-0.122853  L1,-0.0308102  L1,8.88178e-16 " /><path d="M1,-4.9 L1,-4.91428  L1,-4.92856  L1,-4.94284  L1,-4.95713  L1,-4.97142  L1,-4.98571  L1,-5  L1,-5.01429  L1,-5.02858  L1,-5.04287  L1,-5.05716  L1,-5.07144  L1,-5.08572  L1,-5.1 " /><path id= "5" d=" M -5.66214e-16 -10 L 1 -10 " />
<path d="M0,-5.1 L0,-5.64863  L0,-6.19035  L0,-6.71837  L0,-7.22603  L0,-7.70696  L0,-8.1551  L0,-8.56482  L0,-8.93097  L0,-9.24895  L0,-9.51475  L0,-9.72503  L0,-9.87715  L0,-9.96919  L0,-10 " /><path id= "7" d=" M 0 -5.1 L 0 -4.9 " />
<path d="M0,-4.9 L0,-4.35137  L0,-3.80965  L0,-3.28163  L0,-2.77397  L0,-2.29304  L0,-1.8449  L0,-1.43518  L0,-1.06903  L0,-0.751051  L0,-0.485253  L0,-0.274972  L0,-0.122853  L0,-0.0308102  L0,8.88178e-16 " /><path id= "9" d=" M 0 -5.1 L 1 -5.1 " />
<path id= "10" d=" M 0 -4.9 L 1 -4.9 " />
<path id= "11" d=" M -5.66214e-16 8.88178e-16 L 1 8.88178e-16 " />
</g>
</g>



<g id="Ortho_0_1"
   transform="rotate(90,143.5,100) translate(143.5,100) scale(1,1)"
  >
<g   stroke="rgb(0, 0, 0)"
   stroke-width="0.35"
   stroke-linecap="butt"
   stroke-linejoin="miter"
   fill="none"
   transform="scale(1,-1)"
  >
<path id= "1" d=" M -1.17769 0 L -6.27769 0 " />
<path d="M-6.27769 -8.88178e-16 A4.9 4.9 0 0 0 -11.1777 4.9" /><path id= "3" d=" M -1.17769 0 L -1.17769 10 " />
<path id= "4" d=" M -11.1777 4.9 L -11.1777 5.1 " />
<path id= "5" d=" M -1.17769 10 L -6.27769 10 " />
<path d="M-6.27769 10 A4.9 4.9 0 0 1 -11.1777 5.1" /><circle cx ="-6.17769" cy ="5" r ="2.1" /><path id= "8" d=" M 0 0 L 0 10 " />
<path id= "9" d=" M 0 0 L -1.17769 0 " />
<path id= "10" d=" M 0 10 L -1.17769 10 " />
<path id= "11" d=" M 0 10 L 0 0 " />
<path id= "12" d=" M 0 10 L 10 10 " />
<path id= "13" d=" M 10 10 L 10 0 " />
<path id= "14" d=" M 10 0 L 0 0 " />
<circle cx ="5" cy ="5" r ="2.1" /><path id= "16" d=" M 11.1777 10 L 16.2777 10 " />
<path d="M21.1777 5.1 A4.9 4.9 0 0 1 16.2777 10" /><path id= "18" d=" M 11.1777 10 L 11.1777 0 " />
<path id= "19" d=" M 21.1777 5.1 L 21.1777 4.9 " />
<path id= "20" d=" M 11.1777 0 L 16.2777 0 " />
<path d="M21.1777 4.9 A4.9 4.9 0 0 0 16.2777 -8.88178e-16" /><circle cx ="16.1777" cy ="5" r ="2.1" /><path id= "23" d=" M 10 10 L 11.1777 10 " />
<path id= "24" d=" M 10 0 L 11.1777 0 " />
</g>
</g>



</svg>

