<?xml version="1.0" encoding="UTF-8"?>

<svg xmlns="http://www.w3.org/2000/svg" version="1.1"
	width="210mm"
	height="297mm"
	viewBox="0 0 210 297">
	<!-- Working space 0 0 210 297 -->
	<defs>
		<radialGradient
			id="radialGradient3661"
			gradientUnits="userSpaceOnUse"
			cy="29.149"
			cx="282.65"
			gradientTransform="matrix(.14777 .23089 -.24680 .15795 -26.318 -62.617)"
			r="19.571">
				<stop stop-color="#71b2f8" offset="0"/>
				<stop stop-color="#002795" offset="1"/>
		</radialGradient>
		<radialGradient
			id="radialGradient3817"
			gradientUnits="userSpaceOnUse"
			cy="33.9"
			cx="270.58"
			gradientTransform="matrix(.26631 .065024 -.17931 .73438 -60.668 -36.938)"
			r="19.571">
				<stop stop-color="#ff6d0f" offset="0"/>
				<stop stop-color="#ff1000" offset="1"/>
		</radialGradient>
	</defs>
	<!-- Set display:none to hide FreeCAD Logo -->
	<g
		style="display:inline"
		id="freecad-logo"
		transform="translate(184, 272) scale(1)"
		fill-rule="evenodd"
		stroke-width=".45621">
		<path d="m0.22811 0.22835v13.256h2.9558v-5.1876h2.09v-2.0452h-2.09v-2.2075h5.1486v-3.8087l-8.1044-0.0075z"
			stroke="#370700"
			fill="url(#radialGradient3817)"/>
		<path d="m13.386 4.1792-1.7193 0.98645-0.75925-0.26348-0.72439-1.8513-1.1395 0.05988-0.51976 1.9144-0.72743 0.34835-1.8143-0.79367-0.76632 0.85156 0.98645 1.7193-0.26957 0.75702-1.8513 0.72439 0.065967 1.1417 1.9144 0.51976 0.34835 0.72743-0.79976 1.8121 0.85156 0.76632 1.7193-0.98645 0.76311 0.27179 0.7183 1.8491 1.1478-0.06375 0.51367-1.9166 0.72743-0.34835 1.8182 0.80198 0.76632-0.85156-0.98645-1.7193 0.2657-0.76533 1.8491-0.7183-0.05766-1.1456-1.9166-0.51367-0.34835-0.72743 0.7959-1.8204-0.85156-0.76632zm-2.5751 2.8195 0.35295 0.20478 0.30579 0.27725 0.24481 0.33087 0.17611 0.36787 0.10354 0.39656 0.01715 0.4064-0.0587 0.4063-0.13396 0.38571-0.2131 0.35681-0.26894 0.30192-0.33087 0.24481-0.36787 0.17611-0.39656 0.10354-0.40863 0.02325-0.4063-0.0587-0.38571-0.13396-0.35681-0.2131-0.2997-0.27503-0.24703-0.32478-0.17611-0.36787-0.10132-0.40264-0.02324-0.40863 0.05869-0.4063 0.13396-0.38571 0.21087-0.35072 0.27116-0.30801 0.33087-0.24481 0.36787-0.17611 0.40264-0.10132 0.40641-0.01715 0.4063 0.05869 0.38571 0.13396z" 
		stroke="#000137"
		fill="url(#radialGradient3661)"/>
	</g>
<g id="Ortho_0_0"
   transform="rotate(-90,172.667,149.411) translate(172.667,149.411) scale(1,1)"
  >
<g   stroke="rgb(0, 0, 0)"
   stroke-width="0.35"
   stroke-linecap="butt"
   stroke-linejoin="miter"
   fill="none"
   transform="scale(1,-1)"
  >
<path d="M-4.77769,1.5 L-5.32632,1.5  L-5.86805,1.5  L-6.39606,1.5  L-6.90372,1.5  L-7.38465,1.5  L-7.83279,1.5  L-8.24252,1.5  L-8.60867,1.5  L-8.92664,1.5  L-9.19244,1.5  L-9.40272,1.5  L-9.55484,1.5  L-9.64688,1.5  L-9.67769,1.5 " /><path id= "2" d=" M -4.77769 1.5 L 0.322307 1.5 " />
<path id= "3" d=" M -9.67769 1.5 L -9.67769 0.5 " />
<path d="M-4.77769,0.5 L-5.32632,0.5  L-5.86805,0.5  L-6.39606,0.5  L-6.90372,0.5  L-7.38465,0.5  L-7.83279,0.5  L-8.24252,0.5  L-8.60867,0.5  L-8.92664,0.5  L-9.19244,0.5  L-9.40272,0.5  L-9.55484,0.5  L-9.64688,0.5  L-9.67769,0.5 " /><path id= "5" d=" M 0.322307 0.5 L -4.77769 0.5 " />
<path id= "6" d=" M -4.77769 0.5 L 0.322307 0.5 " />
<path d="M-4.67769,0.5 L-4.44257,0.5  L-4.2104,0.5  L-3.98411,0.5  L-3.76654,0.5  L-3.56043,0.5  L-3.36836,0.5  L-3.19277,0.5  L-3.03585,0.5  L-2.89957,0.5  L-2.78566,0.5  L-2.69554,0.5  L-2.63034,0.5  L-2.5909,0.5  L-2.57769,0.5 " /><path d="M-4.77769,0.5 L-4.77055,0.5  L-4.76342,0.5  L-4.75628,0.5  L-4.74913,0.5  L-4.74199,0.5  L-4.73485,0.5  L-4.72771,0.5  L-4.72056,0.5  L-4.71342,0.5  L-4.70627,0.5  L-4.69913,0.5  L-4.69198,0.5  L-4.68484,0.5  L-4.67769,0.5 " /><path id= "9" d=" M -4.77769 1.5 L -4.77769 0.5 " />
<path id= "10" d=" M 0.322307 1.5 L 0.322307 0.5 " />
<path id= "11" d=" M 1.5 1.5 L 0.322307 1.5 " />
<path id= "12" d=" M 1.5 1.5 L 0.322307 1.5 " />
<path id= "13" d=" M 1.5 0.5 L 1.5 1.5 " />
<path id= "14" d=" M 1.5 0.5 L 0.911154 1 " />
<path id= "15" d=" M 1.5 1.5 L 0.911154 1 " />
<path id= "16" d=" M 1.5 0.5 L 0.322307 0.5 " />
<path id= "17" d=" M 1.5 0.5 L 0.322307 0.5 " />
<path id= "18" d=" M 1.5 1.5 L 1.5 0.5 " />
<path id= "19" d=" M 1.5 1.5 L 0.322307 0.5 " />
<path id= "20" d=" M 1.5 0.5 L 0.322307 1.5 " />
<path id= "21" d=" M 1.5 1.5 L 6.6 1.5 " />
<path d="M11.5,1.5 L11.4692,1.5  L11.3771,1.5  L11.225,1.5  L11.0147,1.5  L10.7489,1.5  L10.431,1.5  L10.0648,1.5  L9.6551,1.5  L9.20696,1.5  L8.72603,1.5  L8.21837,1.5  L7.69035,1.5  L7.14863,1.5  L6.6,1.5 " /><path d="M6.5,1.5 L6.50715,1.5  L6.51429,1.5  L6.52144,1.5  L6.52858,1.5  L6.53573,1.5  L6.54287,1.5  L6.55001,1.5  L6.55716,1.5  L6.5643,1.5  L6.57144,1.5  L6.57858,1.5  L6.58572,1.5  L6.59286,1.5  L6.6,1.5 " /><path d="M4.4,1.5 L4.4132,1.5  L4.45265,1.5  L4.51785,1.5  L4.60797,1.5  L4.72188,1.5  L4.85815,1.5  L5.01508,1.5  L5.19067,1.5  L5.38273,1.5  L5.58884,1.5  L5.80641,1.5  L6.03271,1.5  L6.26487,1.5  L6.5,1.5 " /><path id= "25" d=" M 1.5 0.5 L 6.6 0.5 " />
<path d="M11.5,0.5 L11.4692,0.5  L11.3771,0.5  L11.225,0.5  L11.0147,0.5  L10.7489,0.5  L10.431,0.5  L10.0648,0.5  L9.6551,0.5  L9.20696,0.5  L8.72603,0.5  L8.21837,0.5  L7.69035,0.5  L7.14863,0.5  L6.6,0.5 " /><path d="M6.5,0.5 L6.50715,0.5  L6.51429,0.5  L6.52144,0.5  L6.52858,0.5  L6.53573,0.5  L6.54287,0.5  L6.55001,0.5  L6.55716,0.5  L6.5643,0.5  L6.57144,0.5  L6.57858,0.5  L6.58572,0.5  L6.59286,0.5  L6.6,0.5 " /><path id= "28" d=" M 6.6 1.5 L 6.6 0.5 " />
<path id= "29" d=" M 11.5 1.5 L 11.5 0.5 " />
</g>
</g>



<g id="Ortho_-1_0"
   transform="rotate(90,78.3333,149.411) translate(78.3333,149.411) scale(1,1)"
  >
<g   stroke="rgb(0, 0, 0)"
   stroke-width="0.35"
   stroke-linecap="butt"
   stroke-linejoin="miter"
   fill="none"
   transform="scale(1,-1)"
  >
<path id= "1" d=" M 9.67769 4.9 L 9.67769 5.1 " />
<path d="M4.77769 -8.88178e-16 A4.9 4.9 0 0 1 9.67769 4.9" /><path d="M4.77769 10 A4.9 4.9 0 0 0 9.67769 5.1" /><path id= "4" d=" M -0.322307 0 L 4.77769 0 " />
<path id= "5" d=" M 4.77769 10 L -0.322307 10 " />
<path id= "6" d=" M -0.322307 10 L -0.322307 0 " />
<circle cx ="4.67769" cy ="5" r ="2.1" /><path id= "8" d=" M -1.5 10 L -1.5 0 " />
<path id= "9" d=" M -1.5 10 L -0.322307 10 " />
<path id= "10" d=" M -1.5 0 L -0.322307 0 " />
<path id= "11" d=" M -1.5 10 L -6.6 10 " />
<path d="M-11.5 5.1 A4.9 4.9 0 0 0 -6.6 10" /><path id= "13" d=" M -11.5 5.1 L -11.5 4.9 " />
<path id= "14" d=" M -1.5 0 L -6.6 0 " />
<path d="M-11.5 4.9 A4.9 4.9 0 0 1 -6.6 -8.88178e-16" /><circle cx ="-6.5" cy ="5" r ="2.1" /><path d="M-11.5 5.1 A4.9 4.9 0 0 0 -6.6 10" /></g>
</g>



</svg>

